<svg width="512" height="512" viewBox="0 0 512 512" fill="none" xmlns="http://www.w3.org/2000/svg" role="img" aria-labelledby="title desc">
  <title id="title">Calm Resilience Security monogram mark</title>
  <desc id="desc">A CRS monogram inside a shield for Calm Resilience Security Ltd.</desc>
  <rect width="512" height="512" rx="64" fill="#132625"/>
  <path d="M256 66L380 118V219C380 325 329 397 256 437C183 397 132 325 132 219V118L256 66Z" fill="#0F6A57"/>
  <path d="M256 112L342 148V219C342 294 308 348 256 383C204 348 170 294 170 219V148L256 112Z" fill="#F4E8CF"/>
  <path d="M208 295C186 295 168 286 153 270C138 254 130 233 130 208C130 184 138 163 154 147C170 131 190 123 214 123C237 123 255 129 270 142L245 169C236 161 225 157 213 157C198 157 186 162 176 173C166 184 161 196 161 209C161 223 166 235 175 246C185 257 197 262 213 262C226 262 237 258 248 250L271 276C255 289 234 295 208 295Z" fill="#132625"/>
  <path d="M235 315H280C299 315 315 321 327 334C339 346 345 361 345 379C345 398 339 413 326 426C313 439 296 445 275 445H235V315ZM267 411H275C286 411 295 408 301 402C307 396 310 388 310 379C310 370 307 363 301 357C295 351 286 348 275 348H267V411Z" fill="#132625"/>
  <path d="M282 170H337V202H282V232H328V263H282V318H247V139H337V170H282Z" fill="#132625"/>
</svg>
