<svg width="512" height="512" viewBox="0 0 512 512" fill="none" xmlns="http://www.w3.org/2000/svg" role="img" aria-labelledby="title desc">
  <title id="title">Calm Resilience Security beacon mark</title>
  <desc id="desc">An abstract beacon and shield symbol for Calm Resilience Security Ltd.</desc>
  <rect width="512" height="512" rx="64" fill="#F5EFE3"/>
  <circle cx="256" cy="256" r="172" fill="#132625"/>
  <circle cx="256" cy="256" r="126" fill="#0F6A57"/>
  <circle cx="256" cy="256" r="76" fill="#132625"/>
  <path d="M256 90L325 118V209C325 277 297 332 256 364C215 332 187 277 187 209V118L256 90Z" fill="#F4E8CF"/>
  <path d="M256 131L294 147V208C294 246 279 278 256 302C233 278 218 246 218 208V147L256 131Z" fill="#F1B24A"/>
  <path d="M256 54V20" stroke="#2B8975" stroke-width="14" stroke-linecap="round"/>
  <path d="M382 130L406 106" stroke="#2B8975" stroke-width="14" stroke-linecap="round"/>
  <path d="M458 256H492" stroke="#2B8975" stroke-width="14" stroke-linecap="round"/>
  <path d="M382 382L406 406" stroke="#2B8975" stroke-width="14" stroke-linecap="round"/>
  <path d="M130 382L106 406" stroke="#2B8975" stroke-width="14" stroke-linecap="round"/>
  <path d="M54 256H20" stroke="#2B8975" stroke-width="14" stroke-linecap="round"/>
  <path d="M130 130L106 106" stroke="#2B8975" stroke-width="14" stroke-linecap="round"/>
</svg>
